STARTFONT 2.1
FONT -FontForge-Eight Bit Dragon-Book-R-Normal--15-140-75-75-P-102-ISO10646-1
SIZE 14 75 75
FONTBOUNDINGBOX 11 16 0 -2
COMMENT "Generated by fontforge, http://fontforge.sourceforge.net"
COMMENT "Copyright Chequered Ink Ltd. 2018"
STARTPROPERTIES 40
FOUNDRY "FontForge"
FAMILY_NAME "Eight Bit Dragon"
WEIGHT_NAME "Book"
SLANT "R"
SETWIDTH_NAME "Normal"
ADD_STYLE_NAME ""
PIXEL_SIZE 15
POINT_SIZE 140
RESOLUTION_X 75
RESOLUTION_Y 75
SPACING "P"
AVERAGE_WIDTH 102
CHARSET_REGISTRY "ISO10646"
CHARSET_ENCODING "1"
FONTNAME_REGISTRY ""
CHARSET_COLLECTIONS "ISO8859-2 ISO8859-9 ISO8859-4 ISO10646-1"
FONT_NAME "Eight-Bit-Dragon"
FACE_NAME "Eight Bit Dragon"
COPYRIGHT "Copyright Chequered Ink Ltd. 2018"
FONT_VERSION "1.00;September 11, 2018;FontCreator 11.5.0.2422 64-bit"
FONT_ASCENT 12
FONT_DESCENT 3
UNDERLINE_POSITION 1
UNDERLINE_THICKNESS 1
X_HEIGHT 10
CAP_HEIGHT 13
RAW_ASCENT 799
RAW_DESCENT 200
NORM_SPACE 5
RELATIVE_WEIGHT 40
RELATIVE_SETWIDTH 50
SUPERSCRIPT_X 0
SUPERSCRIPT_Y 7
SUPERSCRIPT_SIZE 7
SUBSCRIPT_X 0
SUBSCRIPT_Y 0
SUBSCRIPT_SIZE 7
FIGURE_WIDTH 11
AVG_LOWERCASE_WIDTH 105
AVG_UPPERCASE_WIDTH 107
ENDPROPERTIES
CHARS 346
STARTCHAR space
ENCODING 32
SWIDTH 299 0
DWIDTH 5 0
BBX 1 1 0 0
BITMAP
00
ENDCHAR
STARTCHAR exclam
ENCODING 33
SWIDTH 299 0
DWIDTH 5 0
BBX 3 14 0 0
BITMAP
E0
E0
E0
E0
E0
E0
E0
E0
E0
E0
E0
00
E0
E0
ENDCHAR
STARTCHAR quotedbl
ENCODING 34
SWIDTH 599 0
DWIDTH 9 0
BBX 8 7 0 7
BITMAP
EF
EF
EF
EF
EF
6C
6C
ENDCHAR
STARTCHAR numbersign
ENCODING 35
SWIDTH 799 0
DWIDTH 12 0
BBX 11 14 0 0
BITMAP
7B80
7B80
7B80
FFE0
FFE0
7B80
7B80
7B80
7B80
FFE0
FFE0
7B80
7B80
7B80
ENDCHAR
STARTCHAR dollar
ENCODING 36
SWIDTH 699 0
DWIDTH 11 0
BBX 9 14 0 0
BITMAP
1C00
1C00
7F00
FF80
E380
E000
FF00
7F00
0380
E380
E380
7F00
7F00
1C00
ENDCHAR
STARTCHAR percent
ENCODING 37
SWIDTH 699 0
DWIDTH 11 0
BBX 9 14 0 0
BITMAP
E380
E380
EF00
EF00
0F00
1C00
1C00
1C00
7800
7800
7800
E380
E380
E380
ENDCHAR
STARTCHAR ampersand
ENCODING 38
SWIDTH 699 0
DWIDTH 11 0
BBX 9 14 0 0
BITMAP
7C00
7C00
EF00
EF00
EF00
EC00
FF80
7F80
EC00
EF00
EF00
EF00
FF80
7D80
ENDCHAR
STARTCHAR quotesingle
ENCODING 39
SWIDTH 299 0
DWIDTH 5 0
BBX 3 7 0 7
BITMAP
E0
E0
E0
E0
60
C0
C0
ENDCHAR
STARTCHAR parenleft
ENCODING 40
SWIDTH 500 0
DWIDTH 8 0
BBX 6 14 0 0
BITMAP
1C
1C
78
F8
E0
E0
E0
E0
E0
E0
E0
78
7C
1C
ENDCHAR
STARTCHAR parenright
ENCODING 41
SWIDTH 500 0
DWIDTH 8 0
BBX 6 14 0 0
BITMAP
E0
E0
78
7C
1C
1C
1C
1C
1C
1C
1C
78
F8
E0
ENDCHAR
STARTCHAR asterisk
ENCODING 42
SWIDTH 599 0
DWIDTH 9 0
BBX 8 8 0 6
BITMAP
18
18
FF
FF
7C
7C
FF
EF
ENDCHAR
STARTCHAR plus
ENCODING 43
SWIDTH 699 0
DWIDTH 11 0
BBX 9 8 0 3
BITMAP
1C00
1C00
1C00
FF80
FF80
1C00
1C00
1C00
ENDCHAR
STARTCHAR comma
ENCODING 44
SWIDTH 299 0
DWIDTH 5 0
BBX 3 7 0 -2
BITMAP
E0
E0
E0
E0
60
C0
C0
ENDCHAR
STARTCHAR hyphen
ENCODING 45
SWIDTH 699 0
DWIDTH 11 0
BBX 9 2 0 6
BITMAP
FF80
FF80
ENDCHAR
STARTCHAR period
ENCODING 46
SWIDTH 299 0
DWIDTH 5 0
BBX 3 3 0 0
BITMAP
E0
E0
E0
ENDCHAR
STARTCHAR slash
ENCODING 47
SWIDTH 699 0
DWIDTH 11 0
BBX 9 14 0 0
BITMAP
0380
0380
0F00
0F00
0F00
1C00
1C00
1C00
7800
7800
7800
E000
E000
E000
ENDCHAR
STARTCHAR zero
ENCODING 48
SWIDTH 699 0
DWIDTH 11 0
BBX 9 14 0 0
BITMAP
7F00
7F00
E380
E380
E380
E380
E380
E380
E380
E380
E380
E380
FF80
7F00
ENDCHAR
STARTCHAR one
ENCODING 49
SWIDTH 699 0
DWIDTH 11 0
BBX 9 14 0 0
BITMAP
1C00
1C00
7C00
FC00
FC00
1C00
1C00
1C00
1C00
1C00
1C00
1C00
FF80
FF80
ENDCHAR
STARTCHAR two
ENCODING 50
SWIDTH 699 0
DWIDTH 11 0
BBX 9 14 0 0
BITMAP
7F00
7F00
E380
E380
E380
0380
7F80
7F00
E000
E000
E000
E380
FF80
FF80
ENDCHAR
STARTCHAR three
ENCODING 51
SWIDTH 699 0
DWIDTH 11 0
BBX 9 14 0 0
BITMAP
7F00
7F00
E380
E380
E380
0380
7F80
7F00
0380
E380
E380
E380
FF80
7F00
ENDCHAR
STARTCHAR four
ENCODING 52
SWIDTH 699 0
DWIDTH 11 0
BBX 9 14 0 0
BITMAP
E380
E380
E380
E380
E380
E380
E380
E380
E380
FF80
FF80
0380
0380
0380
ENDCHAR
STARTCHAR five
ENCODING 53
SWIDTH 699 0
DWIDTH 11 0
BBX 9 14 0 0
BITMAP
FF80
FF80
E380
E380
E000
E000
FF00
FF00
0380
E380
E380
E380
FF80
7F00
ENDCHAR
STARTCHAR six
ENCODING 54
SWIDTH 699 0
DWIDTH 11 0
BBX 9 14 0 0
BITMAP
7F00
7F00
E380
E380
E380
E000
FF00
FF00
E380
E380
E380
E380
FF80
7F00
ENDCHAR
STARTCHAR seven
ENCODING 55
SWIDTH 699 0
DWIDTH 11 0
BBX 9 14 0 0
BITMAP
FF80
FF80
E380
E380
0380
0F00
0F00
0F00
1C00
1C00
1C00
7800
7800
7800
ENDCHAR
STARTCHAR eight
ENCODING 56
SWIDTH 699 0
DWIDTH 11 0
BBX 9 14 0 0
BITMAP
7F00
7F00
E380
E380
E380
E380
FF80
7F00
E380
E380
E380
E380
FF80
7F00
ENDCHAR
STARTCHAR nine
ENCODING 57
SWIDTH 699 0
DWIDTH 11 0
BBX 9 14 0 0
BITMAP
7F00
7F00
E380
E380
E380
E380
FF80
7F80
0380
E380
E380
E380
FF80
7F00
ENDCHAR
STARTCHAR colon
ENCODING 58
SWIDTH 299 0
DWIDTH 5 0
BBX 3 11 0 0
BITMAP
E0
E0
E0
E0
00
00
00
00
E0
E0
E0
ENDCHAR
STARTCHAR semicolon
ENCODING 59
SWIDTH 299 0
DWIDTH 5 0
BBX 3 13 0 -2
BITMAP
E0
E0
E0
E0
00
00
E0
E0
E0
E0
60
C0
C0
ENDCHAR
STARTCHAR less
ENCODING 60
SWIDTH 599 0
DWIDTH 9 0
BBX 8 11 0 1
BITMAP
0F
1F
1C
78
F8
E0
78
7C
1C
0F
0F
ENDCHAR
STARTCHAR equal
ENCODING 61
SWIDTH 699 0
DWIDTH 11 0
BBX 9 5 0 4
BITMAP
FF80
FF80
0000
FF80
FF80
ENDCHAR
STARTCHAR greater
ENCODING 62
SWIDTH 599 0
DWIDTH 9 0
BBX 8 11 0 1
BITMAP
E0
F8
78
1C
1F
0F
1C
7C
78
E0
E0
ENDCHAR
STARTCHAR question
ENCODING 63
SWIDTH 699 0
DWIDTH 11 0
BBX 9 14 0 0
BITMAP
7F00
7F00
E380
E380
0380
0380
1F80
1F00
7800
7800
7800
0000
7800
7800
ENDCHAR
STARTCHAR at
ENCODING 64
SWIDTH 799 0
DWIDTH 12 0
BBX 11 14 0 0
BITMAP
7F80
7F80
E1E0
E1E0
E1E0
E1E0
E1E0
E1E0
EF80
EF80
E000
E1E0
FFE0
7F80
ENDCHAR
STARTCHAR A
ENCODING 65
SWIDTH 699 0
DWIDTH 11 0
BBX 9 14 0 0
BITMAP
1C00
1C00
7F00
FF80
E380
E380
E380
E380
FF80
FF80
E380
E380
E380
E380
ENDCHAR
STARTCHAR B
ENCODING 66
SWIDTH 699 0
DWIDTH 11 0
BBX 9 14 0 0
BITMAP
FF00
FF00
E380
E380
E380
E380
FF80
FF00
E380
E380
E380
E380
FF80
FF00
ENDCHAR
STARTCHAR C
ENCODING 67
SWIDTH 699 0
DWIDTH 11 0
BBX 9 14 0 0
BITMAP
7F00
7F00
E380
E380
E380
E000
E000
E000
E000
E380
E380
E380
FF80
7F00
ENDCHAR
STARTCHAR D
ENCODING 68
SWIDTH 699 0
DWIDTH 11 0
BBX 9 14 0 0
BITMAP
FF00
FF00
E380
E380
E380
E380
E380
E380
E380
E380
E380
E380
FF80
FF00
ENDCHAR
STARTCHAR E
ENCODING 69
SWIDTH 699 0
DWIDTH 11 0
BBX 9 14 0 0
BITMAP
FF80
FF80
E000
E000
E000
E000
FF00
FF00
E000
E000
E000
E000
FF80
FF80
ENDCHAR
STARTCHAR F
ENCODING 70
SWIDTH 699 0
DWIDTH 11 0
BBX 9 14 0 0
BITMAP
FF80
FF80
E000
E000
E000
E000
FF00
FF00
E000
E000
E000
E000
E000
E000
ENDCHAR
STARTCHAR G
ENCODING 71
SWIDTH 699 0
DWIDTH 11 0
BBX 9 14 0 0
BITMAP
7F00
7F00
E380
E380
E380
E000
EF80
EF80
E380
E380
E380
E380
FF80
7F00
ENDCHAR
STARTCHAR H
ENCODING 72
SWIDTH 699 0
DWIDTH 11 0
BBX 9 14 0 0
BITMAP
E380
E380
E380
E380
E380
E380
FF80
FF80
E380
E380
E380
E380
E380
E380
ENDCHAR
STARTCHAR I
ENCODING 73
SWIDTH 299 0
DWIDTH 5 0
BBX 3 14 0 0
BITMAP
E0
E0
E0
E0
E0
E0
E0
E0
E0
E0
E0
E0
E0
E0
ENDCHAR
STARTCHAR J
ENCODING 74
SWIDTH 699 0
DWIDTH 11 0
BBX 9 14 0 0
BITMAP
0380
0380
0380
0380
0380
0380
0380
0380
0380
E380
E380
E380
FF80
7F00
ENDCHAR
STARTCHAR K
ENCODING 75
SWIDTH 699 0
DWIDTH 11 0
BBX 9 14 0 0
BITMAP
E380
E380
E380
E380
E380
E380
FF80
FF00
E380
E380
E380
E380
E380
E380
ENDCHAR
STARTCHAR L
ENCODING 76
SWIDTH 699 0
DWIDTH 11 0
BBX 9 14 0 0
BITMAP
E000
E000
E000
E000
E000
E000
E000
E000
E000
E000
E000
E000
FF80
FF80
ENDCHAR
STARTCHAR M
ENCODING 77
SWIDTH 799 0
DWIDTH 12 0
BBX 11 14 0 0
BITMAP
E1E0
E1E0
FBE0
FFE0
FFE0
EDE0
EDE0
E1E0
E1E0
E1E0
E1E0
E1E0
E1E0
E1E0
ENDCHAR
STARTCHAR N
ENCODING 78
SWIDTH 699 0
DWIDTH 11 0
BBX 9 14 0 0
BITMAP
E380
E380
E380
FB80
FB80
FF80
FF80
EF80
E380
E380
E380
E380
E380
E380
ENDCHAR
STARTCHAR O
ENCODING 79
SWIDTH 699 0
DWIDTH 11 0
BBX 9 14 0 0
BITMAP
7F00
7F00
E380
E380
E380
E380
E380
E380
E380
E380
E380
E380
FF80
7F00
ENDCHAR
STARTCHAR P
ENCODING 80
SWIDTH 699 0
DWIDTH 11 0
BBX 9 14 0 0
BITMAP
FF00
FF00
E380
E380
E380
E380
FF80
FF00
E000
E000
E000
E000
E000
E000
ENDCHAR
STARTCHAR Q
ENCODING 81
SWIDTH 699 0
DWIDTH 11 0
BBX 9 14 0 0
BITMAP
7F00
7F00
E380
E380
E380
E380
E380
E380
E380
E380
E300
EC00
FF80
7B80
ENDCHAR
STARTCHAR R
ENCODING 82
SWIDTH 699 0
DWIDTH 11 0
BBX 9 14 0 0
BITMAP
FF00
FF00
E380
E380
E380
E380
FF80
FF00
E380
E380
E380
E380
E380
E380
ENDCHAR
STARTCHAR S
ENCODING 83
SWIDTH 699 0
DWIDTH 11 0
BBX 9 14 0 0
BITMAP
7F00
7F00
E380
E380
E000
E000
FF00
7F00
0380
0380
0380
E380
FF80
7F00
ENDCHAR
STARTCHAR T
ENCODING 84
SWIDTH 699 0
DWIDTH 11 0
BBX 9 14 0 0
BITMAP
FF80
FF80
1C00
1C00
1C00
1C00
1C00
1C00
1C00
1C00
1C00
1C00
1C00
1C00
ENDCHAR
STARTCHAR U
ENCODING 85
SWIDTH 699 0
DWIDTH 11 0
BBX 9 14 0 0
BITMAP
E380
E380
E380
E380
E380
E380
E380
E380
E380
E380
E380
E380
FF80
7F00
ENDCHAR
STARTCHAR V
ENCODING 86
SWIDTH 699 0
DWIDTH 11 0
BBX 9 14 0 0
BITMAP
E380
E380
E380
E380
E380
E380
E380
E380
E380
E380
E380
7B00
7F00
1C00
ENDCHAR
STARTCHAR W
ENCODING 87
SWIDTH 799 0
DWIDTH 12 0
BBX 11 14 0 0
BITMAP
E1E0
E1E0
E1E0
E1E0
E1E0
E1E0
E1E0
E1E0
EDE0
FFE0
FFE0
FBE0
FBE0
E1E0
ENDCHAR
STARTCHAR X
ENCODING 88
SWIDTH 699 0
DWIDTH 11 0
BBX 9 14 0 0
BITMAP
E380
E380
E380
E380
E380
E380
FF80
7F00
E380
E380
E380
E380
E380
E380
ENDCHAR
STARTCHAR Y
ENCODING 89
SWIDTH 699 0
DWIDTH 11 0
BBX 9 14 0 0
BITMAP
E380
E380
E380
E380
E380
E380
FF80
7F00
1C00
1C00
1C00
1C00
1C00
1C00
ENDCHAR
STARTCHAR Z
ENCODING 90
SWIDTH 699 0
DWIDTH 11 0
BBX 9 14 0 0
BITMAP
FF80
FF80
0380
0380
0380
0F00
1F00
1C00
7800
F800
E000
E000
FF80
FF80
ENDCHAR
STARTCHAR bracketleft
ENCODING 91
SWIDTH 399 0
DWIDTH 6 0
BBX 5 14 0 0
BITMAP
F8
F8
E0
E0
E0
E0
E0
E0
E0
E0
E0
E0
F8
F8
ENDCHAR
STARTCHAR backslash
ENCODING 92
SWIDTH 699 0
DWIDTH 11 0
BBX 9 14 0 0
BITMAP
E000
E000
7800
7800
7800
1C00
1C00
1C00
0F00
0F00
0F00
0380
0380
0380
ENDCHAR
STARTCHAR bracketright
ENCODING 93
SWIDTH 399 0
DWIDTH 6 0
BBX 5 14 0 0
BITMAP
F8
F8
78
78
78
78
78
78
78
78
78
78
F8
F8
ENDCHAR
STARTCHAR asciicircum
ENCODING 94
SWIDTH 699 0
DWIDTH 11 0
BBX 9 7 0 7
BITMAP
1C00
1C00
7F00
FF80
E380
E380
E380
ENDCHAR
STARTCHAR underscore
ENCODING 95
SWIDTH 699 0
DWIDTH 11 0
BBX 9 2 0 0
BITMAP
FF80
FF80
ENDCHAR
STARTCHAR grave
ENCODING 96
SWIDTH 399 0
DWIDTH 6 0
BBX 5 4 0 10
BITMAP
E0
E0
78
78
ENDCHAR
STARTCHAR a
ENCODING 97
SWIDTH 699 0
DWIDTH 11 0
BBX 9 11 0 0
BITMAP
7F00
7F00
0380
7F80
7F80
E380
E380
E380
E380
FF80
7D80
ENDCHAR
STARTCHAR b
ENCODING 98
SWIDTH 699 0
DWIDTH 11 0
BBX 9 14 0 0
BITMAP
E000
E000
E000
FF00
FF00
E380
E380
E380
E380
E380
E380
E380
FF80
DF00
ENDCHAR
STARTCHAR c
ENCODING 99
SWIDTH 699 0
DWIDTH 11 0
BBX 9 11 0 0
BITMAP
7F00
7F00
E380
E380
E380
E000
E380
E380
E380
FF80
7F00
ENDCHAR
STARTCHAR d
ENCODING 100
SWIDTH 699 0
DWIDTH 11 0
BBX 9 14 0 0
BITMAP
0380
0380
0380
7F80
7F80
E380
E380
E380
E380
E380
E380
E380
FF80
7D80
ENDCHAR
STARTCHAR e
ENCODING 101
SWIDTH 699 0
DWIDTH 11 0
BBX 9 11 0 0
BITMAP
7F00
7F00
E380
E380
E380
FF80
FF80
E000
E380
FF80
7F00
ENDCHAR
STARTCHAR f
ENCODING 102
SWIDTH 699 0
DWIDTH 11 0
BBX 9 12 0 0
BITMAP
7F00
FF80
E380
E380
E380
E000
FC00
FC00
E000
E000
E000
E000
ENDCHAR
STARTCHAR g
ENCODING 103
SWIDTH 699 0
DWIDTH 11 0
BBX 9 13 0 -2
BITMAP
7D80
7D80
E380
E380
E380
E380
E380
E380
7F80
7F80
0380
7F00
7F00
ENDCHAR
STARTCHAR h
ENCODING 104
SWIDTH 699 0
DWIDTH 11 0
BBX 9 14 0 0
BITMAP
E000
E000
E000
FF00
FF00
E380
E380
E380
E380
E380
E380
E380
E380
E380
ENDCHAR
STARTCHAR i
ENCODING 105
SWIDTH 299 0
DWIDTH 5 0
BBX 3 14 0 0
BITMAP
E0
E0
00
E0
E0
E0
E0
E0
E0
E0
E0
E0
E0
E0
ENDCHAR
STARTCHAR j
ENCODING 106
SWIDTH 399 0
DWIDTH 6 0
BBX 5 16 0 -2
BITMAP
78
78
00
78
78
78
78
78
78
78
78
78
78
78
E0
E0
ENDCHAR
STARTCHAR k
ENCODING 107
SWIDTH 699 0
DWIDTH 11 0
BBX 9 14 0 0
BITMAP
E000
E000
E000
E380
E380
E380
E380
E380
FF00
FF80
E380
E380
E380
E380
ENDCHAR
STARTCHAR l
ENCODING 108
SWIDTH 299 0
DWIDTH 5 0
BBX 3 14 0 0
BITMAP
E0
E0
E0
E0
E0
E0
E0
E0
E0
E0
E0
E0
E0
E0
ENDCHAR
STARTCHAR m
ENCODING 109
SWIDTH 799 0
DWIDTH 12 0
BBX 11 11 0 0
BITMAP
7B80
7B80
FFE0
FFE0
EDE0
EDE0
EDE0
EDE0
EDE0
EDE0
EDE0
ENDCHAR
STARTCHAR n
ENCODING 110
SWIDTH 699 0
DWIDTH 11 0
BBX 9 11 0 0
BITMAP
FF00
FF00
E380
E380
E380
E380
E380
E380
E380
E380
E380
ENDCHAR
STARTCHAR o
ENCODING 111
SWIDTH 699 0
DWIDTH 11 0
BBX 9 11 0 0
BITMAP
7F00
7F00
E380
E380
E380
E380
E380
E380
E380
FF80
7F00
ENDCHAR
STARTCHAR p
ENCODING 112
SWIDTH 699 0
DWIDTH 11 0
BBX 9 13 0 -2
BITMAP
DF00
DF00
E380
E380
E380
E380
E380
E380
FF00
FF00
E000
E000
E000
ENDCHAR
STARTCHAR q
ENCODING 113
SWIDTH 699 0
DWIDTH 11 0
BBX 9 13 0 -2
BITMAP
7D80
7D80
E380
E380
E380
E380
E380
E380
7F80
7F80
0380
0380
0380
ENDCHAR
STARTCHAR r
ENCODING 114
SWIDTH 699 0
DWIDTH 11 0
BBX 9 11 0 0
BITMAP
DF00
DF00
E380
E380
E380
E000
E000
E000
E000
E000
E000
ENDCHAR
STARTCHAR s
ENCODING 115
SWIDTH 699 0
DWIDTH 11 0
BBX 9 11 0 0
BITMAP
7F00
7F00
E380
E380
E000
7F00
7F80
0380
E380
FF80
7F00
ENDCHAR
STARTCHAR t
ENCODING 116
SWIDTH 699 0
DWIDTH 11 0
BBX 9 12 0 0
BITMAP
7800
7800
7800
FF80
FF80
7800
7800
7800
7800
7800
7F00
1F00
ENDCHAR
STARTCHAR u
ENCODING 117
SWIDTH 699 0
DWIDTH 11 0
BBX 9 11 0 0
BITMAP
E380
E380
E380
E380
E380
E380
E380
E380
E380
FF80
7D80
ENDCHAR
STARTCHAR v
ENCODING 118
SWIDTH 699 0
DWIDTH 11 0
BBX 9 11 0 0
BITMAP
E380
E380
E380
E380
E380
E380
E380
E380
7B00
7F00
1C00
ENDCHAR
STARTCHAR w
ENCODING 119
SWIDTH 799 0
DWIDTH 12 0
BBX 11 11 0 0
BITMAP
E1E0
E1E0
E1E0
EDE0
EDE0
EDE0
EDE0
EDE0
FFE0
FFE0
7B80
ENDCHAR
STARTCHAR x
ENCODING 120
SWIDTH 699 0
DWIDTH 11 0
BBX 9 11 0 0
BITMAP
E380
E380
E380
E380
E380
7F00
FF80
E380
E380
E380
E380
ENDCHAR
STARTCHAR y
ENCODING 121
SWIDTH 699 0
DWIDTH 11 0
BBX 9 13 0 -2
BITMAP
E380
E380
E380
E380
E380
E380
E380
E380
7F80
7F80
0380
7F00
7F00
ENDCHAR
STARTCHAR z
ENCODING 122
SWIDTH 699 0
DWIDTH 11 0
BBX 9 11 0 0
BITMAP
FF80
FF80
0380
0F80
0F00
1C00
7C00
7800
E000
FF80
FF80
ENDCHAR
STARTCHAR braceleft
ENCODING 123
SWIDTH 500 0
DWIDTH 8 0
BBX 6 14 0 0
BITMAP
1C
1C
78
78
78
1C
FC
F8
1C
7C
78
78
7C
1C
ENDCHAR
STARTCHAR bar
ENCODING 124
SWIDTH 299 0
DWIDTH 5 0
BBX 3 14 0 0
BITMAP
E0
E0
E0
E0
E0
E0
E0
E0
E0
E0
E0
E0
E0
E0
ENDCHAR
STARTCHAR braceright
ENCODING 125
SWIDTH 500 0
DWIDTH 8 0
BBX 6 14 0 0
BITMAP
E0
E0
78
78
78
E0
FC
7C
E0
F8
78
78
F8
E0
ENDCHAR
STARTCHAR asciitilde
ENCODING 126
SWIDTH 699 0
DWIDTH 11 0
BBX 9 5 0 4
BITMAP
7B80
FF80
FF80
EF00
EF00
ENDCHAR
STARTCHAR uni00A0
ENCODING 160
SWIDTH 299 0
DWIDTH 5 0
BBX 1 1 0 0
BITMAP
00
ENDCHAR
STARTCHAR exclamdown
ENCODING 161
SWIDTH 299 0
DWIDTH 5 0
BBX 3 14 0 -2
BITMAP
E0
E0
00
E0
E0
E0
E0
E0
E0
E0
E0
E0
E0
E0
ENDCHAR
STARTCHAR cent
ENCODING 162
SWIDTH 699 0
DWIDTH 11 0
BBX 9 14 0 0
BITMAP
1C00
1C00
7F00
FF80
E380
E380
E380
E000
E380
E380
E380
7F00
7F00
1C00
ENDCHAR
STARTCHAR sterling
ENCODING 163
SWIDTH 699 0
DWIDTH 11 0
BBX 9 14 0 0
BITMAP
1F00
1F00
7B80
7B80
7B80
7800
FF00
FF00
7800
7800
7800
7B80
7F80
7F80
ENDCHAR
STARTCHAR currency
ENCODING 164
SWIDTH 699 0
DWIDTH 11 0
BBX 9 10 0 1
BITMAP
E380
E380
FF80
FF80
6300
6300
FF80
FF80
E380
E380
ENDCHAR
STARTCHAR yen
ENCODING 165
SWIDTH 699 0
DWIDTH 11 0
BBX 9 14 0 0
BITMAP
E380
E380
E380
E380
E380
7F00
7F00
1C00
FF80
FF80
1C00
FF80
FF80
1C00
ENDCHAR
STARTCHAR brokenbar
ENCODING 166
SWIDTH 299 0
DWIDTH 5 0
BBX 3 14 0 0
BITMAP
E0
E0
E0
E0
E0
E0
E0
00
E0
E0
E0
E0
E0
E0
ENDCHAR
STARTCHAR section
ENCODING 167
SWIDTH 699 0
DWIDTH 11 0
BBX 9 14 0 0
BITMAP
7F00
7F00
E380
E380
E000
FF00
FF00
6300
7F80
7F80
0380
E380
FF80
7F00
ENDCHAR
STARTCHAR dieresis
ENCODING 168
SWIDTH 699 0
DWIDTH 11 0
BBX 9 2 0 12
BITMAP
E380
E380
ENDCHAR
STARTCHAR copyright
ENCODING 169
SWIDTH 799 0
DWIDTH 12 0
BBX 11 14 0 0
BITMAP
7F80
7F80
E1E0
FFE0
DF60
DB60
DB60
D860
DB60
DF60
DF60
E1E0
FFE0
7F80
ENDCHAR
STARTCHAR ordfeminine
ENCODING 170
SWIDTH 699 0
DWIDTH 11 0
BBX 9 11 0 3
BITMAP
7F00
7F00
0380
7F80
7F80
E380
E380
E380
E380
FF80
7D80
ENDCHAR
STARTCHAR guillemotleft
ENCODING 171
SWIDTH 799 0
DWIDTH 12 0
BBX 11 8 0 3
BITMAP
1DE0
1DE0
7B80
FF80
EF00
7B80
7FE0
1DE0
ENDCHAR
STARTCHAR logicalnot
ENCODING 172
SWIDTH 699 0
DWIDTH 11 0
BBX 9 5 0 3
BITMAP
FF80
FF80
0380
0380
0380
ENDCHAR
STARTCHAR uni00AD
ENCODING 173
SWIDTH 699 0
DWIDTH 11 0
BBX 9 2 0 6
BITMAP
FF80
FF80
ENDCHAR
STARTCHAR registered
ENCODING 174
SWIDTH 799 0
DWIDTH 12 0
BBX 11 14 0 0
BITMAP
7F80
7F80
E1E0
FFE0
DF60
DB60
DF60
DC60
DB60
DB60
DB60
E1E0
FFE0
7F80
ENDCHAR
STARTCHAR macron
ENCODING 175
SWIDTH 699 0
DWIDTH 11 0
BBX 9 2 0 12
BITMAP
FF80
FF80
ENDCHAR
STARTCHAR degree
ENCODING 176
SWIDTH 599 0
DWIDTH 9 0
BBX 8 8 0 6
BITMAP
7C
7C
EF
EF
EF
EF
FF
7C
ENDCHAR
STARTCHAR plusminus
ENCODING 177
SWIDTH 699 0
DWIDTH 11 0
BBX 9 11 0 0
BITMAP
1C00
1C00
1C00
FF80
FF80
1C00
1C00
1C00
0000
FF80
FF80
ENDCHAR
STARTCHAR uni00B2
ENCODING 178
SWIDTH 699 0
DWIDTH 11 0
BBX 9 11 0 3
BITMAP
7F00
7F00
E380
E380
0380
7F00
FF00
E000
E000
FF80
FF80
ENDCHAR
STARTCHAR uni00B3
ENCODING 179
SWIDTH 699 0
DWIDTH 11 0
BBX 9 11 0 3
BITMAP
7F00
7F00
E380
E380
0380
7F00
7F80
0380
E380
FF80
7F00
ENDCHAR
STARTCHAR acute
ENCODING 180
SWIDTH 399 0
DWIDTH 6 0
BBX 5 4 0 10
BITMAP
78
78
E0
E0
ENDCHAR
STARTCHAR mu
ENCODING 181
SWIDTH 699 0
DWIDTH 11 0
BBX 9 13 0 -2
BITMAP
E380
E380
E380
E380
E380
E380
E380
E380
E380
FF80
FD80
E000
E000
ENDCHAR
STARTCHAR paragraph
ENCODING 182
SWIDTH 699 0
DWIDTH 11 0
BBX 9 14 0 0
BITMAP
7F80
7F80
FB00
FB00
FB00
FB00
FB00
7B00
1B00
1B00
1B00
1B00
1B00
1B00
ENDCHAR
STARTCHAR periodcentered
ENCODING 183
SWIDTH 299 0
DWIDTH 5 0
BBX 3 3 0 6
BITMAP
E0
E0
E0
ENDCHAR
STARTCHAR cedilla
ENCODING 184
SWIDTH 399 0
DWIDTH 6 0
BBX 5 4 0 -2
BITMAP
78
78
E0
E0
ENDCHAR
STARTCHAR uni00B9
ENCODING 185
SWIDTH 699 0
DWIDTH 11 0
BBX 9 11 0 3
BITMAP
1C00
1C00
7C00
FC00
FC00
1C00
1C00
1C00
1C00
FF80
FF80
ENDCHAR
STARTCHAR ordmasculine
ENCODING 186
SWIDTH 699 0
DWIDTH 11 0
BBX 9 11 0 3
BITMAP
7F00
7F00
E380
E380
E380
E380
E380
E380
E380
FF80
7F00
ENDCHAR
STARTCHAR guillemotright
ENCODING 187
SWIDTH 799 0
DWIDTH 12 0
BBX 11 8 0 3
BITMAP
EF00
EF00
7B80
7FE0
1DE0
7B80
FF80
EF00
ENDCHAR
STARTCHAR onequarter
ENCODING 188
SWIDTH 799 0
DWIDTH 12 0
BBX 11 14 0 0
BITMAP
E000
E000
6000
6000
6000
6000
FB60
FB60
0360
03E0
03E0
0060
0060
0060
ENDCHAR
STARTCHAR onehalf
ENCODING 189
SWIDTH 799 0
DWIDTH 12 0
BBX 11 14 0 0
BITMAP
E000
E000
6000
6000
6000
6000
FBE0
FBE0
0060
03E0
03E0
0300
03E0
03E0
ENDCHAR
STARTCHAR threequarters
ENCODING 190
SWIDTH 799 0
DWIDTH 12 0
BBX 11 14 0 0
BITMAP
F800
F800
1800
F800
F800
1800
FB60
FB60
0360
03E0
03E0
0060
0060
0060
ENDCHAR
STARTCHAR questiondown
ENCODING 191
SWIDTH 699 0
DWIDTH 11 0
BBX 9 14 0 -2
BITMAP
0F00
0F00
0000
0F00
0F00
0F00
7C00
FC00
E000
E000
E380
E380
7F00
7F00
ENDCHAR
STARTCHAR Agrave
ENCODING 192
SWIDTH 699 0
DWIDTH 11 0
BBX 9 14 0 0
BITMAP
7800
7800
1C00
1C00
0000
7F00
FF80
E380
E380
FF80
FF80
E380
E380
E380
ENDCHAR
STARTCHAR Aacute
ENCODING 193
SWIDTH 699 0
DWIDTH 11 0
BBX 9 14 0 0
BITMAP
0F00
0F00
1C00
1C00
0000
7F00
FF80
E380
E380
FF80
FF80
E380
E380
E380
ENDCHAR
STARTCHAR Acircumflex
ENCODING 194
SWIDTH 699 0
DWIDTH 11 0
BBX 9 14 0 0
BITMAP
1C00
1C00
7B00
7B00
0000
7F00
FF80
E380
E380
FF80
FF80
E380
E380
E380
ENDCHAR
STARTCHAR Atilde
ENCODING 195
SWIDTH 699 0
DWIDTH 11 0
BBX 9 14 0 0
BITMAP
7D80
7D80
EF00
EF00
0000
7F00
FF80
E380
E380
FF80
FF80
E380
E380
E380
ENDCHAR
STARTCHAR Adieresis
ENCODING 196
SWIDTH 699 0
DWIDTH 11 0
BBX 9 14 0 0
BITMAP
E380
E380
0000
1C00
1C00
7F00
FF80
E380
E380
FF80
FF80
E380
E380
E380
ENDCHAR
STARTCHAR Aring
ENCODING 197
SWIDTH 699 0
DWIDTH 11 0
BBX 9 14 0 0
BITMAP
1C00
1C00
6300
7F00
1C00
7F00
FF80
E380
E380
FF80
FF80
E380
E380
E380
ENDCHAR
STARTCHAR AE
ENCODING 198
SWIDTH 799 0
DWIDTH 12 0
BBX 11 14 0 0
BITMAP
1FE0
1FE0
7F00
FF00
EF00
EF00
FFE0
FFE0
EF00
EF00
EF00
EF00
EFE0
EFE0
ENDCHAR
STARTCHAR Ccedilla
ENCODING 199
SWIDTH 699 0
DWIDTH 11 0
BBX 9 16 0 -2
BITMAP
7F00
7F00
E380
E380
E380
E000
E000
E000
E380
E380
E380
7F00
7F00
1C00
7800
7800
ENDCHAR
STARTCHAR Egrave
ENCODING 200
SWIDTH 699 0
DWIDTH 11 0
BBX 9 14 0 0
BITMAP
7800
7800
1C00
1C00
0000
FF80
FF80
E000
FF00
FF00
E000
E000
FF80
FF80
ENDCHAR
STARTCHAR Eacute
ENCODING 201
SWIDTH 699 0
DWIDTH 11 0
BBX 9 14 0 0
BITMAP
0F00
0F00
1C00
1C00
0000
FF80
FF80
E000
FF00
FF00
E000
E000
FF80
FF80
ENDCHAR
STARTCHAR Ecircumflex
ENCODING 202
SWIDTH 699 0
DWIDTH 11 0
BBX 9 14 0 0
BITMAP
1C00
1C00
7B00
7B00
0000
FF80
FF80
E000
FF00
FF00
E000
E000
FF80
FF80
ENDCHAR
STARTCHAR Edieresis
ENCODING 203
SWIDTH 699 0
DWIDTH 11 0
BBX 9 14 0 0
BITMAP
E380
E380
0000
FF80
FF80
E000
E000
E000
FF00
FF00
E000
E000
FF80
FF80
ENDCHAR
STARTCHAR Igrave
ENCODING 204
SWIDTH 399 0
DWIDTH 6 0
BBX 5 14 0 0
BITMAP
E0
E0
78
78
00
78
78
78
78
78
78
78
78
78
ENDCHAR
STARTCHAR Iacute
ENCODING 205
SWIDTH 399 0
DWIDTH 6 0
BBX 5 14 0 0
BITMAP
78
78
E0
E0
00
E0
E0
E0
E0
E0
E0
E0
E0
E0
ENDCHAR
STARTCHAR Icircumflex
ENCODING 206
SWIDTH 500 0
DWIDTH 8 0
BBX 6 14 0 0
BITMAP
78
78
EC
EC
00
78
78
78
78
78
78
78
78
78
ENDCHAR
STARTCHAR Idieresis
ENCODING 207
SWIDTH 599 0
DWIDTH 9 0
BBX 9 14 0 0
BITMAP
E380
E380
0000
1C00
1C00
1C00
1C00
1C00
1C00
1C00
1C00
1C00
1C00
1C00
ENDCHAR
STARTCHAR Eth
ENCODING 208
SWIDTH 799 0
DWIDTH 12 0
BBX 11 14 0 0
BITMAP
7F80
7F80
79E0
79E0
79E0
79E0
FDE0
FDE0
79E0
79E0
79E0
79E0
7FE0
7F80
ENDCHAR
STARTCHAR Ntilde
ENCODING 209
SWIDTH 699 0
DWIDTH 11 0
BBX 9 14 0 0
BITMAP
7D80
7D80
EF00
EF00
0000
E380
FB80
FB80
FF80
FF80
EF80
E380
E380
E380
ENDCHAR
STARTCHAR Ograve
ENCODING 210
SWIDTH 699 0
DWIDTH 11 0
BBX 9 14 0 0
BITMAP
7800
7800
1C00
1C00
0000
7F00
FF80
E380
E380
E380
E380
E380
FF80
7F00
ENDCHAR
STARTCHAR Oacute
ENCODING 211
SWIDTH 699 0
DWIDTH 11 0
BBX 9 14 0 0
BITMAP
0F00
0F00
1C00
1C00
0000
7F00
FF80
E380
E380
E380
E380
E380
FF80
7F00
ENDCHAR
STARTCHAR Ocircumflex
ENCODING 212
SWIDTH 699 0
DWIDTH 11 0
BBX 9 14 0 0
BITMAP
1C00
1C00
7B00
7B00
0000
7F00
FF80
E380
E380
E380
E380
E380
FF80
7F00
ENDCHAR
STARTCHAR Otilde
ENCODING 213
SWIDTH 699 0
DWIDTH 11 0
BBX 9 14 0 0
BITMAP
7D80
7D80
EF00
EF00
0000
7F00
FF80
E380
E380
E380
E380
E380
FF80
7F00
ENDCHAR
STARTCHAR Odieresis
ENCODING 214
SWIDTH 699 0
DWIDTH 11 0
BBX 9 14 0 0
BITMAP
E380
E380
0000
7F00
7F00
E380
E380
E380
E380
E380
E380
E380
FF80
7F00
ENDCHAR
STARTCHAR multiply
ENCODING 215
SWIDTH 699 0
DWIDTH 11 0
BBX 9 8 0 3
BITMAP
E380
E380
7F00
7F00
1C00
7F00
FF80
E380
ENDCHAR
STARTCHAR Oslash
ENCODING 216
SWIDTH 699 0
DWIDTH 11 0
BBX 9 14 0 0
BITMAP
7D80
7D80
E300
E380
E380
EF80
FF80
FF80
FB80
FB80
E380
6380
FF80
DF00
ENDCHAR
STARTCHAR Ugrave
ENCODING 217
SWIDTH 699 0
DWIDTH 11 0
BBX 9 14 0 0
BITMAP
7800
7800
1C00
1C00
0000
E380
E380
E380
E380
E380
E380
E380
FF80
7F00
ENDCHAR
STARTCHAR Uacute
ENCODING 218
SWIDTH 699 0
DWIDTH 11 0
BBX 9 14 0 0
BITMAP
0F00
0F00
1C00
1C00
0000
E380
E380
E380
E380
E380
E380
E380
FF80
7F00
ENDCHAR
STARTCHAR Ucircumflex
ENCODING 219
SWIDTH 699 0
DWIDTH 11 0
BBX 9 14 0 0
BITMAP
1C00
1C00
7B00
7B00
0000
E380
E380
E380
E380
E380
E380
E380
FF80
7F00
ENDCHAR
STARTCHAR Udieresis
ENCODING 220
SWIDTH 699 0
DWIDTH 11 0
BBX 9 14 0 0
BITMAP
E380
E380
0000
E380
E380
E380
E380
E380
E380
E380
E380
E380
FF80
7F00
ENDCHAR
STARTCHAR Yacute
ENCODING 221
SWIDTH 699 0
DWIDTH 11 0
BBX 9 14 0 0
BITMAP
0F00
0F00
1C00
1C00
0000
E380
E380
E380
E380
FF80
7F00
1C00
1C00
1C00
ENDCHAR
STARTCHAR Thorn
ENCODING 222
SWIDTH 699 0
DWIDTH 11 0
BBX 9 14 0 0
BITMAP
E000
E000
FF00
FF80
E380
E380
E380
E380
E380
E380
E380
FF00
FF00
E000
ENDCHAR
STARTCHAR germandbls
ENCODING 223
SWIDTH 699 0
DWIDTH 11 0
BBX 9 14 0 0
BITMAP
7F00
7F00
E380
E380
E380
E380
EF80
EF00
E380
E380
E380
E380
EF80
EF00
ENDCHAR
STARTCHAR agrave
ENCODING 224
SWIDTH 699 0
DWIDTH 11 0
BBX 9 14 0 0
BITMAP
7800
7800
1C00
1C00
0000
7F00
7F80
0380
7F80
FF80
E380
E380
FF80
7D80
ENDCHAR
STARTCHAR aacute
ENCODING 225
SWIDTH 699 0
DWIDTH 11 0
BBX 9 14 0 0
BITMAP
0F00
0F00
1C00
1C00
0000
7F00
7F80
0380
7F80
FF80
E380
E380
FF80
7D80
ENDCHAR
STARTCHAR acircumflex
ENCODING 226
SWIDTH 699 0
DWIDTH 11 0
BBX 9 14 0 0
BITMAP
1C00
1C00
7B00
7B00
0000
7F00
7F80
0380
7F80
FF80
E380
E380
FF80
7D80
ENDCHAR
STARTCHAR atilde
ENCODING 227
SWIDTH 699 0
DWIDTH 11 0
BBX 9 14 0 0
BITMAP
7D80
7D80
EF00
EF00
0000
7F00
7F80
0380
7F80
FF80
E380
E380
FF80
7D80
ENDCHAR
STARTCHAR adieresis
ENCODING 228
SWIDTH 699 0
DWIDTH 11 0
BBX 9 14 0 0
BITMAP
E380
E380
0000
7F00
7F00
0380
7F80
7F80
E380
E380
E380
E380
FF80
7D80
ENDCHAR
STARTCHAR aring
ENCODING 229
SWIDTH 699 0
DWIDTH 11 0
BBX 9 14 0 0
BITMAP
1C00
1C00
6300
7F00
7F00
0380
7F80
7F80
E380
E380
E380
E380
FF80
7D80
ENDCHAR
STARTCHAR ae
ENCODING 230
SWIDTH 799 0
DWIDTH 12 0
BBX 11 11 0 0
BITMAP
7F80
7F80
0DE0
7DE0
7DE0
EFE0
EFE0
EF00
EF60
FFE0
7B80
ENDCHAR
STARTCHAR ccedilla
ENCODING 231
SWIDTH 699 0
DWIDTH 11 0
BBX 9 14 0 -2
BITMAP
7F00
FF80
E380
E380
E380
E000
E380
E380
E380
7F00
7F00
1C00
7800
7800
ENDCHAR
STARTCHAR egrave
ENCODING 232
SWIDTH 699 0
DWIDTH 11 0
BBX 9 14 0 0
BITMAP
7800
7800
1C00
1C00
0000
7F00
FF80
E380
FF80
FF80
E000
E380
FF80
7F00
ENDCHAR
STARTCHAR eacute
ENCODING 233
SWIDTH 699 0
DWIDTH 11 0
BBX 9 14 0 0
BITMAP
0F00
0F00
1C00
1C00
0000
7F00
FF80
E380
FF80
FF80
E000
E380
FF80
7F00
ENDCHAR
STARTCHAR ecircumflex
ENCODING 234
SWIDTH 699 0
DWIDTH 11 0
BBX 9 14 0 0
BITMAP
1C00
1C00
7B00
7B00
0000
7F00
FF80
E380
FF80
FF80
E000
E380
FF80
7F00
ENDCHAR
STARTCHAR edieresis
ENCODING 235
SWIDTH 699 0
DWIDTH 11 0
BBX 9 14 0 0
BITMAP
E380
E380
0000
7F00
7F00
E380
E380
E380
FF80
FF80
E000
E380
FF80
7F00
ENDCHAR
STARTCHAR igrave
ENCODING 236
SWIDTH 399 0
DWIDTH 6 0
BBX 5 14 0 0
BITMAP
E0
E0
78
78
00
78
78
78
78
78
78
78
78
78
ENDCHAR
STARTCHAR iacute
ENCODING 237
SWIDTH 399 0
DWIDTH 6 0
BBX 5 14 0 0
BITMAP
78
78
E0
E0
00
E0
E0
E0
E0
E0
E0
E0
E0
E0
ENDCHAR
STARTCHAR icircumflex
ENCODING 238
SWIDTH 500 0
DWIDTH 8 0
BBX 6 14 0 0
BITMAP
78
78
EC
EC
00
78
78
78
78
78
78
78
78
78
ENDCHAR
STARTCHAR idieresis
ENCODING 239
SWIDTH 699 0
DWIDTH 11 0
BBX 9 14 0 0
BITMAP
E380
E380
0000
1C00
1C00
1C00
1C00
1C00
1C00
1C00
1C00
1C00
1C00
1C00
ENDCHAR
STARTCHAR eth
ENCODING 240
SWIDTH 699 0
DWIDTH 11 0
BBX 9 14 0 0
BITMAP
7B00
7B00
1C00
7F00
6F00
1F80
7F80
7B80
E380
E380
E380
E380
FF80
7F00
ENDCHAR
STARTCHAR ntilde
ENCODING 241
SWIDTH 699 0
DWIDTH 11 0
BBX 9 14 0 0
BITMAP
7D80
7D80
EF00
EF00
0000
FF00
FF80
E380
E380
E380
E380
E380
E380
E380
ENDCHAR
STARTCHAR ograve
ENCODING 242
SWIDTH 699 0
DWIDTH 11 0
BBX 9 14 0 0
BITMAP
7800
7800
1C00
1C00
0000
7F00
FF80
E380
E380
E380
E380
E380
FF80
7F00
ENDCHAR
STARTCHAR oacute
ENCODING 243
SWIDTH 699 0
DWIDTH 11 0
BBX 9 14 0 0
BITMAP
0F00
0F00
1C00
1C00
0000
7F00
FF80
E380
E380
E380
E380
E380
FF80
7F00
ENDCHAR
STARTCHAR ocircumflex
ENCODING 244
SWIDTH 699 0
DWIDTH 11 0
BBX 9 14 0 0
BITMAP
1C00
1C00
7B00
7B00
0000
7F00
FF80
E380
E380
E380
E380
E380
FF80
7F00
ENDCHAR
STARTCHAR otilde
ENCODING 245
SWIDTH 699 0
DWIDTH 11 0
BBX 9 14 0 0
BITMAP
7D80
7D80
EF00
EF00
0000
7F00
FF80
E380
E380
E380
E380
E380
FF80
7F00
ENDCHAR
STARTCHAR odieresis
ENCODING 246
SWIDTH 699 0
DWIDTH 11 0
BBX 9 14 0 0
BITMAP
E380
E380
0000
7F00
7F00
E380
E380
E380
E380
E380
E380
E380
FF80
7F00
ENDCHAR
STARTCHAR divide
ENCODING 247
SWIDTH 699 0
DWIDTH 11 0
BBX 9 11 0 1
BITMAP
1C00
1C00
1C00
0000
FF80
FF80
0000
1C00
1C00
1C00
1C00
ENDCHAR
STARTCHAR oslash
ENCODING 248
SWIDTH 699 0
DWIDTH 11 0
BBX 9 11 0 0
BITMAP
7D80
7D80
E300
EF80
EF80
FF80
FF80
FB80
6380
FF80
DF00
ENDCHAR
STARTCHAR ugrave
ENCODING 249
SWIDTH 699 0
DWIDTH 11 0
BBX 9 14 0 0
BITMAP
7800
7800
1C00
1C00
0000
E380
E380
E380
E380
E380
E380
E380
FF80
7D80
ENDCHAR
STARTCHAR uacute
ENCODING 250
SWIDTH 699 0
DWIDTH 11 0
BBX 9 14 0 0
BITMAP
0F00
0F00
1C00
1C00
0000
E380
E380
E380
E380
E380
E380
E380
FF80
7D80
ENDCHAR
STARTCHAR ucircumflex
ENCODING 251
SWIDTH 699 0
DWIDTH 11 0
BBX 9 14 0 0
BITMAP
1C00
1C00
7B00
7B00
0000
E380
E380
E380
E380
E380
E380
E380
FF80
7D80
ENDCHAR
STARTCHAR udieresis
ENCODING 252
SWIDTH 699 0
DWIDTH 11 0
BBX 9 14 0 0
BITMAP
E380
E380
0000
E380
E380
E380
E380
E380
E380
E380
E380
E380
FF80
7D80
ENDCHAR
STARTCHAR yacute
ENCODING 253
SWIDTH 699 0
DWIDTH 11 0
BBX 9 16 0 -2
BITMAP
0F00
0F00
1C00
1C00
0000
E380
E380
E380
E380
E380
E380
7F80
7F80
0380
7F00
7F00
ENDCHAR
STARTCHAR thorn
ENCODING 254
SWIDTH 699 0
DWIDTH 11 0
BBX 9 14 0 -2
BITMAP
E000
EF00
EF00
FB80
FB80
E380
E380
E380
E380
FB80
FF80
EF00
E000
E000
ENDCHAR
STARTCHAR ydieresis
ENCODING 255
SWIDTH 699 0
DWIDTH 11 0
BBX 9 16 0 -2
BITMAP
E380
E380
0000
E380
E380
E380
E380
E380
E380
E380
E380
7F80
7F80
0380
7F00
7F00
ENDCHAR
STARTCHAR Amacron
ENCODING 256
SWIDTH 699 0
DWIDTH 11 0
BBX 9 14 0 0
BITMAP
FF80
FF80
0000
1C00
1C00
7F00
FF80
E380
E380
FF80
FF80
E380
E380
E380
ENDCHAR
STARTCHAR amacron
ENCODING 257
SWIDTH 699 0
DWIDTH 11 0
BBX 9 14 0 0
BITMAP
FF80
FF80
0000
7F00
7F00
0380
7F80
7F80
E380
E380
E380
E380
FF80
7D80
ENDCHAR
STARTCHAR Abreve
ENCODING 258
SWIDTH 699 0
DWIDTH 11 0
BBX 9 14 0 0
BITMAP
6300
6300
1C00
1C00
0000
7F00
FF80
E380
E380
FF80
FF80
E380
E380
E380
ENDCHAR
STARTCHAR abreve
ENCODING 259
SWIDTH 699 0
DWIDTH 11 0
BBX 9 14 0 0
BITMAP
6300
6300
1C00
1C00
0000
7F00
7F80
0380
7F80
FF80
E380
E380
FF80
7D80
ENDCHAR
STARTCHAR Aogonek
ENCODING 260
SWIDTH 699 0
DWIDTH 11 0
BBX 9 16 0 -2
BITMAP
1C00
1C00
7F00
FF80
E380
E380
FF80
FF80
E380
E380
E380
E380
EF80
0F00
0380
0380
ENDCHAR
STARTCHAR aogonek
ENCODING 261
SWIDTH 699 0
DWIDTH 11 0
BBX 9 14 0 -2
BITMAP
7F00
7F80
0380
7F80
FF80
E380
E380
E380
E380
7D80
7F80
0F00
0380
0380
ENDCHAR
STARTCHAR Cacute
ENCODING 262
SWIDTH 699 0
DWIDTH 11 0
BBX 9 14 0 0
BITMAP
0F00
0F00
1C00
1C00
0000
7F00
FF80
E380
E000
E000
E000
E380
FF80
7F00
ENDCHAR
STARTCHAR cacute
ENCODING 263
SWIDTH 699 0
DWIDTH 11 0
BBX 9 14 0 0
BITMAP
0F00
0F00
1C00
1C00
0000
7F00
FF80
E380
E000
E000
E000
E380
FF80
7F00
ENDCHAR
STARTCHAR Ccircumflex
ENCODING 264
SWIDTH 699 0
DWIDTH 11 0
BBX 9 14 0 0
BITMAP
1C00
1C00
7B00
7B00
0000
7F00
FF80
E380
E000
E000
E000
E380
FF80
7F00
ENDCHAR
STARTCHAR ccircumflex
ENCODING 265
SWIDTH 699 0
DWIDTH 11 0
BBX 9 14 0 0
BITMAP
1C00
1C00
7B00
7B00
0000
7F00
FF80
E380
E000
E000
E000
E380
FF80
7F00
ENDCHAR
STARTCHAR Cdotaccent
ENCODING 266
SWIDTH 699 0
DWIDTH 11 0
BBX 9 14 0 0
BITMAP
1C00
1C00
0000
7F00
7F00
E380
E380
E380
E000
E380
E380
E380
FF80
7F00
ENDCHAR
STARTCHAR cdotaccent
ENCODING 267
SWIDTH 699 0
DWIDTH 11 0
BBX 9 14 0 0
BITMAP
1C00
1C00
0000
7F00
7F00
E380
E380
E380
E000
E380
E380
E380
FF80
7F00
ENDCHAR
STARTCHAR Ccaron
ENCODING 268
SWIDTH 699 0
DWIDTH 11 0
BBX 9 14 0 0
BITMAP
7B00
7B00
1C00
1C00
0000
7F00
FF80
E380
E000
E000
E000
E380
FF80
7F00
ENDCHAR
STARTCHAR ccaron
ENCODING 269
SWIDTH 699 0
DWIDTH 11 0
BBX 9 14 0 0
BITMAP
7B00
7B00
1C00
1C00
0000
7F00
FF80
E380
E000
E000
E000
E380
FF80
7F00
ENDCHAR
STARTCHAR Dcaron
ENCODING 270
SWIDTH 699 0
DWIDTH 11 0
BBX 9 14 0 0
BITMAP
7B00
7B00
1C00
1C00
0000
FF00
FF80
E380
E380
E380
E380
E380
FF80
FF00
ENDCHAR
STARTCHAR dcaron
ENCODING 271
SWIDTH 799 0
DWIDTH 12 0
BBX 11 14 0 0
BITMAP
0F60
0F60
0F60
7F60
7F60
EF00
EF00
EF00
EF00
EF00
EF00
EF00
FF00
7B00
ENDCHAR
STARTCHAR Dcroat
ENCODING 272
SWIDTH 799 0
DWIDTH 12 0
BBX 11 14 0 0
BITMAP
7F80
7F80
79E0
79E0
79E0
79E0
FDE0
FDE0
79E0
79E0
79E0
79E0
7FE0
7F80
ENDCHAR
STARTCHAR dcroat
ENCODING 273
SWIDTH 799 0
DWIDTH 12 0
BBX 11 14 0 0
BITMAP
0380
0380
1FE0
1FE0
0380
7F80
FF80
E380
E380
E380
E380
E380
FF80
7D80
ENDCHAR
STARTCHAR Emacron
ENCODING 274
SWIDTH 699 0
DWIDTH 11 0
BBX 9 14 0 0
BITMAP
FF80
FF80
0000
FF80
FF80
E000
E000
E000
FF00
FF00
E000
E000
FF80
FF80
ENDCHAR
STARTCHAR emacron
ENCODING 275
SWIDTH 699 0
DWIDTH 11 0
BBX 9 14 0 0
BITMAP
FF80
FF80
0000
7F00
7F00
E380
E380
E380
FF80
FF80
E000
E380
FF80
7F00
ENDCHAR
STARTCHAR Ebreve
ENCODING 276
SWIDTH 699 0
DWIDTH 11 0
BBX 9 14 0 0
BITMAP
6300
6300
1C00
1C00
0000
FF80
FF80
E000
FF00
FF00
E000
E000
FF80
FF80
ENDCHAR
STARTCHAR ebreve
ENCODING 277
SWIDTH 699 0
DWIDTH 11 0
BBX 9 14 0 0
BITMAP
6300
6300
1C00
1C00
0000
7F00
FF80
E380
FF80
FF80
E000
E380
FF80
7F00
ENDCHAR
STARTCHAR Edotaccent
ENCODING 278
SWIDTH 699 0
DWIDTH 11 0
BBX 9 14 0 0
BITMAP
1C00
1C00
0000
FF80
FF80
E000
E000
E000
FF00
FF00
E000
E000
FF80
FF80
ENDCHAR
STARTCHAR edotaccent
ENCODING 279
SWIDTH 699 0
DWIDTH 11 0
BBX 9 14 0 0
BITMAP
1C00
1C00
0000
7F00
7F00
E380
E380
E380
FF80
FF80
E000
E380
FF80
7F00
ENDCHAR
STARTCHAR Eogonek
ENCODING 280
SWIDTH 699 0
DWIDTH 11 0
BBX 9 16 0 -2
BITMAP
FF80
FF80
E000
E000
E000
FF00
FF00
E000
E000
E000
E000
FF80
FF80
0F00
0380
0380
ENDCHAR
STARTCHAR eogonek
ENCODING 281
SWIDTH 699 0
DWIDTH 11 0
BBX 9 14 0 -2
BITMAP
7F00
FF80
E380
E380
FF80
FF80
E000
E380
E380
7F00
7F00
0F00
0380
0380
ENDCHAR
STARTCHAR Ecaron
ENCODING 282
SWIDTH 699 0
DWIDTH 11 0
BBX 9 14 0 0
BITMAP
7B00
7B00
1C00
1C00
0000
FF80
FF80
E000
FF00
FF00
E000
E000
FF80
FF80
ENDCHAR
STARTCHAR ecaron
ENCODING 283
SWIDTH 699 0
DWIDTH 11 0
BBX 9 14 0 0
BITMAP
7B00
7B00
1C00
1C00
0000
7F00
FF80
E380
FF80
FF80
E000
E380
FF80
7F00
ENDCHAR
STARTCHAR Gcircumflex
ENCODING 284
SWIDTH 699 0
DWIDTH 11 0
BBX 9 14 0 0
BITMAP
1C00
1C00
7B00
7B00
0000
7F00
FF80
E380
E000
EF80
EF80
E380
FF80
7F00
ENDCHAR
STARTCHAR gcircumflex
ENCODING 285
SWIDTH 699 0
DWIDTH 11 0
BBX 9 16 0 -2
BITMAP
1C00
1C00
7B00
7B00
0000
7D80
FF80
E380
E380
E380
E380
7F80
7F80
0380
7F00
7F00
ENDCHAR
STARTCHAR Gbreve
ENCODING 286
SWIDTH 699 0
DWIDTH 11 0
BBX 9 14 0 0
BITMAP
6300
6300
1C00
1C00
0000
7F00
FF80
E380
E000
EF80
EF80
E380
FF80
7F00
ENDCHAR
STARTCHAR gbreve
ENCODING 287
SWIDTH 699 0
DWIDTH 11 0
BBX 9 16 0 -2
BITMAP
6300
6300
1C00
1C00
0000
7D80
FF80
E380
E380
E380
E380
7F80
7F80
0380
7F00
7F00
ENDCHAR
STARTCHAR Gdotaccent
ENCODING 288
SWIDTH 699 0
DWIDTH 11 0
BBX 9 14 0 0
BITMAP
1C00
1C00
0000
7F00
7F00
E380
E380
E000
EF80
EF80
E380
E380
FF80
7F00
ENDCHAR
STARTCHAR gdotaccent
ENCODING 289
SWIDTH 699 0
DWIDTH 11 0
BBX 9 16 0 -2
BITMAP
1C00
1C00
0000
7D80
7D80
E380
E380
E380
E380
E380
E380
7F80
7F80
0380
7F00
7F00
ENDCHAR
STARTCHAR uni0122
ENCODING 290
SWIDTH 699 0
DWIDTH 11 0
BBX 9 16 0 -2
BITMAP
7F00
7F00
E380
E380
E000
EF80
EF80
E380
E380
E380
E380
7F00
7F00
1C00
7800
7800
ENDCHAR
STARTCHAR uni0123
ENCODING 291
SWIDTH 699 0
DWIDTH 11 0
BBX 9 16 0 -2
BITMAP
1800
1800
1C00
1C00
0000
7D80
FF80
E380
E380
E380
E380
7F80
7F80
0380
7F00
7F00
ENDCHAR
STARTCHAR Hcircumflex
ENCODING 292
SWIDTH 699 0
DWIDTH 11 0
BBX 9 14 0 0
BITMAP
1C00
1C00
7B00
7B00
0000
E380
E380
E380
FF80
FF80
E380
E380
E380
E380
ENDCHAR
STARTCHAR hcircumflex
ENCODING 293
SWIDTH 799 0
DWIDTH 12 0
BBX 11 14 0 0
BITMAP
7800
7800
EC00
EC00
0000
7800
7F80
7F80
79E0
79E0
79E0
79E0
79E0
79E0
ENDCHAR
STARTCHAR Hbar
ENCODING 294
SWIDTH 799 0
DWIDTH 12 0
BBX 11 14 0 0
BITMAP
7B80
7B80
FFE0
FFE0
7B80
7B80
7F80
7F80
7B80
7B80
7B80
7B80
7B80
7B80
ENDCHAR
STARTCHAR hbar
ENCODING 295
SWIDTH 799 0
DWIDTH 12 0
BBX 11 14 0 0
BITMAP
7800
7800
FF00
FF00
7800
7F80
7FE0
79E0
79E0
79E0
79E0
79E0
79E0
79E0
ENDCHAR
STARTCHAR Itilde
ENCODING 296
SWIDTH 699 0
DWIDTH 11 0
BBX 9 14 0 0
BITMAP
7D80
7D80
EF00
EF00
0000
1C00
1C00
1C00
1C00
1C00
1C00
1C00
1C00
1C00
ENDCHAR
STARTCHAR itilde
ENCODING 297
SWIDTH 699 0
DWIDTH 11 0
BBX 9 14 0 0
BITMAP
7D80
7D80
EF00
EF00
0000
1C00
1C00
1C00
1C00
1C00
1C00
1C00
1C00
1C00
ENDCHAR
STARTCHAR Imacron
ENCODING 298
SWIDTH 500 0
DWIDTH 8 0
BBX 6 14 0 0
BITMAP
FC
FC
00
78
78
78
78
78
78
78
78
78
78
78
ENDCHAR
STARTCHAR imacron
ENCODING 299
SWIDTH 500 0
DWIDTH 8 0
BBX 6 14 0 0
BITMAP
FC
FC
00
78
78
78
78
78
78
78
78
78
78
78
ENDCHAR
STARTCHAR Ibreve
ENCODING 300
SWIDTH 500 0
DWIDTH 8 0
BBX 6 14 0 0
BITMAP
CC
CC
78
78
00
78
78
78
78
78
78
78
78
78
ENDCHAR
STARTCHAR ibreve
ENCODING 301
SWIDTH 500 0
DWIDTH 8 0
BBX 6 14 0 0
BITMAP
CC
CC
78
78
00
78
78
78
78
78
78
78
78
78
ENDCHAR
STARTCHAR Iogonek
ENCODING 302
SWIDTH 399 0
DWIDTH 6 0
BBX 5 16 0 -2
BITMAP
78
78
78
78
78
78
78
78
78
78
78
78
F8
E0
78
78
ENDCHAR
STARTCHAR iogonek
ENCODING 303
SWIDTH 399 0
DWIDTH 6 0
BBX 5 16 0 -2
BITMAP
78
78
00
78
78
78
78
78
78
78
78
78
F8
E0
78
78
ENDCHAR
STARTCHAR Idotaccent
ENCODING 304
SWIDTH 299 0
DWIDTH 5 0
BBX 3 14 0 0
BITMAP
E0
E0
00
E0
E0
E0
E0
E0
E0
E0
E0
E0
E0
E0
ENDCHAR
STARTCHAR dotlessi
ENCODING 305
SWIDTH 299 0
DWIDTH 5 0
BBX 3 11 0 0
BITMAP
E0
E0
E0
E0
E0
E0
E0
E0
E0
E0
E0
ENDCHAR
STARTCHAR IJ
ENCODING 306
SWIDTH 799 0
DWIDTH 12 0
BBX 11 14 0 0
BITMAP
E1E0
E1E0
E1E0
E1E0
E1E0
E1E0
E1E0
E1E0
E1E0
E1E0
E1E0
FDE0
FFE0
EF80
ENDCHAR
STARTCHAR ij
ENCODING 307
SWIDTH 699 0
DWIDTH 11 0
BBX 9 16 0 -2
BITMAP
E380
E380
0000
E380
E380
E380
E380
E380
E380
E380
E380
E380
E380
E380
0F00
0F00
ENDCHAR
STARTCHAR Jcircumflex
ENCODING 308
SWIDTH 699 0
DWIDTH 11 0
BBX 9 14 0 0
BITMAP
0F00
0F00
1D80
1D80
0000
0F00
0F00
0F00
0F00
0F00
0F00
EF00
FF00
7C00
ENDCHAR
STARTCHAR jcircumflex
ENCODING 309
SWIDTH 500 0
DWIDTH 8 0
BBX 6 16 0 -2
BITMAP
78
78
EC
EC
00
78
78
78
78
78
78
78
78
78
E0
E0
ENDCHAR
STARTCHAR uni0136
ENCODING 310
SWIDTH 699 0
DWIDTH 11 0
BBX 9 16 0 -2
BITMAP
E380
E380
E380
E380
E380
FF00
FF80
E380
E380
E380
E380
E380
FF80
1C00
7800
7800
ENDCHAR
STARTCHAR uni0137
ENCODING 311
SWIDTH 699 0
DWIDTH 11 0
BBX 9 16 0 -2
BITMAP
E000
E000
E000
E380
E380
E380
FF80
FF00
E380
E380
E380
E380
FF80
1C00
7800
7800
ENDCHAR
STARTCHAR kgreenlandic
ENCODING 312
SWIDTH 699 0
DWIDTH 11 0
BBX 9 11 0 0
BITMAP
E380
E380
E380
E380
E380
FF00
FF80
E380
E380
E380
E380
ENDCHAR
STARTCHAR Lacute
ENCODING 313
SWIDTH 699 0
DWIDTH 11 0
BBX 9 14 0 0
BITMAP
7800
7800
E000
E000
0000
E000
E000
E000
E000
E000
E000
E000
FF80
FF80
ENDCHAR
STARTCHAR lacute
ENCODING 314
SWIDTH 399 0
DWIDTH 6 0
BBX 5 14 0 0
BITMAP
78
78
E0
E0
00
E0
E0
E0
E0
E0
E0
E0
E0
E0
ENDCHAR
STARTCHAR uni013B
ENCODING 315
SWIDTH 699 0
DWIDTH 11 0
BBX 9 16 0 -2
BITMAP
E000
E000
E000
E000
E000
E000
E000
E000
E000
E000
E000
FF80
FF80
1C00
7800
7800
ENDCHAR
STARTCHAR uni013C
ENCODING 316
SWIDTH 399 0
DWIDTH 6 0
BBX 5 16 0 -2
BITMAP
78
78
78
78
78
78
78
78
78
78
78
78
78
78
E0
E0
ENDCHAR
STARTCHAR Lcaron
ENCODING 317
SWIDTH 699 0
DWIDTH 11 0
BBX 9 14 0 0
BITMAP
E380
E380
E380
E380
E180
E300
E300
E000
E000
E000
E000
E000
FF80
FF80
ENDCHAR
STARTCHAR lcaron
ENCODING 318
SWIDTH 699 0
DWIDTH 11 0
BBX 9 14 0 0
BITMAP
E380
E380
E380
E380
E180
E300
E300
E000
E000
E000
E000
E000
E000
E000
ENDCHAR
STARTCHAR Ldot
ENCODING 319
SWIDTH 699 0
DWIDTH 11 0
BBX 9 14 0 0
BITMAP
E000
E000
E000
E000
E000
E380
E380
E380
E000
E000
E000
E000
FF80
FF80
ENDCHAR
STARTCHAR ldot
ENCODING 320
SWIDTH 599 0
DWIDTH 9 0
BBX 8 14 0 0
BITMAP
E0
E0
E0
E0
E0
EF
EF
EF
E0
E0
E0
E0
E0
E0
ENDCHAR
STARTCHAR Lslash
ENCODING 321
SWIDTH 799 0
DWIDTH 12 0
BBX 11 14 0 0
BITMAP
7800
7800
7800
7B00
7B00
7F00
FF00
FC00
F800
F800
7800
7800
7FE0
7FE0
ENDCHAR
STARTCHAR lslash
ENCODING 322
SWIDTH 599 0
DWIDTH 9 0
BBX 8 14 0 0
BITMAP
78
78
78
7B
7B
7F
FF
FC
F8
F8
78
78
78
78
ENDCHAR
STARTCHAR Nacute
ENCODING 323
SWIDTH 699 0
DWIDTH 11 0
BBX 9 14 0 0
BITMAP
0F00
0F00
1C00
1C00
0000
E380
FB80
FB80
FF80
FF80
EF80
E380
E380
E380
ENDCHAR
STARTCHAR nacute
ENCODING 324
SWIDTH 699 0
DWIDTH 11 0
BBX 9 14 0 0
BITMAP
0F00
0F00
1C00
1C00
0000
DF00
FF80
E380
E380
E380
E380
E380
E380
E380
ENDCHAR
STARTCHAR uni0145
ENCODING 325
SWIDTH 699 0
DWIDTH 11 0
BBX 9 16 0 -2
BITMAP
E380
E380
E380
FB80
FB80
FF80
FF80
EF80
E380
E380
E380
E380
FF80
1C00
7800
7800
ENDCHAR
STARTCHAR uni0146
ENCODING 326
SWIDTH 699 0
DWIDTH 11 0
BBX 9 13 0 -2
BITMAP
DF00
DF00
E380
E380
E380
E380
E380
E380
E380
FF80
1C00
7800
7800
ENDCHAR
STARTCHAR Ncaron
ENCODING 327
SWIDTH 699 0
DWIDTH 11 0
BBX 9 14 0 0
BITMAP
7B00
7B00
1C00
1C00
0000
E380
FB80
FB80
FF80
FF80
EF80
E380
E380
E380
ENDCHAR
STARTCHAR ncaron
ENCODING 328
SWIDTH 699 0
DWIDTH 11 0
BBX 9 14 0 0
BITMAP
7B00
7B00
1C00
1C00
0000
DF00
FF80
E380
E380
E380
E380
E380
E380
E380
ENDCHAR
STARTCHAR napostrophe
ENCODING 329
SWIDTH 799 0
DWIDTH 12 0
BBX 11 14 0 0
BITMAP
E000
E000
6000
FB80
DB80
1DE0
1DE0
1DE0
1DE0
1DE0
1DE0
1DE0
1DE0
1DE0
ENDCHAR
STARTCHAR Eng
ENCODING 330
SWIDTH 699 0
DWIDTH 11 0
BBX 9 16 0 -2
BITMAP
E380
E380
E380
FB80
FB80
FF80
FF80
EF80
E380
E380
E380
E380
E380
E380
0F00
0F00
ENDCHAR
STARTCHAR eng
ENCODING 331
SWIDTH 699 0
DWIDTH 11 0
BBX 9 13 0 -2
BITMAP
DF00
DF00
E380
E380
E380
E380
E380
E380
E380
E380
E380
0F00
0F00
ENDCHAR
STARTCHAR Omacron
ENCODING 332
SWIDTH 699 0
DWIDTH 11 0
BBX 9 14 0 0
BITMAP
FF80
FF80
0000
7F00
7F00
E380
E380
E380
E380
E380
E380
E380
FF80
7F00
ENDCHAR
STARTCHAR omacron
ENCODING 333
SWIDTH 699 0
DWIDTH 11 0
BBX 9 14 0 0
BITMAP
FF80
FF80
0000
7F00
7F00
E380
E380
E380
E380
E380
E380
E380
FF80
7F00
ENDCHAR
STARTCHAR Obreve
ENCODING 334
SWIDTH 699 0
DWIDTH 11 0
BBX 9 14 0 0
BITMAP
6300
6300
1C00
1C00
0000
7F00
FF80
E380
E380
E380
E380
E380
FF80
7F00
ENDCHAR
STARTCHAR obreve
ENCODING 335
SWIDTH 699 0
DWIDTH 11 0
BBX 9 14 0 0
BITMAP
6300
6300
1C00
1C00
0000
7F00
FF80
E380
E380
E380
E380
E380
FF80
7F00
ENDCHAR
STARTCHAR Ohungarumlaut
ENCODING 336
SWIDTH 699 0
DWIDTH 11 0
BBX 9 14 0 0
BITMAP
7B80
7B80
EF00
EF00
0000
7F00
FF80
E380
E380
E380
E380
E380
FF80
7F00
ENDCHAR
STARTCHAR ohungarumlaut
ENCODING 337
SWIDTH 699 0
DWIDTH 11 0
BBX 9 14 0 0
BITMAP
7B80
7B80
EF00
EF00
0000
7F00
FF80
E380
E380
E380
E380
E380
FF80
7F00
ENDCHAR
STARTCHAR OE
ENCODING 338
SWIDTH 799 0
DWIDTH 12 0
BBX 11 14 0 0
BITMAP
7FE0
7FE0
EF00
EF00
EF00
EF00
EFE0
EFE0
EF00
EF00
EF00
EF00
FFE0
7FE0
ENDCHAR
STARTCHAR oe
ENCODING 339
SWIDTH 799 0
DWIDTH 12 0
BBX 11 11 0 0
BITMAP
7F80
7F80
EDE0
EDE0
EDE0
EFE0
EFE0
EF00
EF60
FFE0
7B80
ENDCHAR
STARTCHAR Racute
ENCODING 340
SWIDTH 699 0
DWIDTH 11 0
BBX 9 14 0 0
BITMAP
0F00
0F00
1C00
1C00
0000
FF00
FF80
E380
E380
FF80
FF00
E380
E380
E380
ENDCHAR
STARTCHAR racute
ENCODING 341
SWIDTH 699 0
DWIDTH 11 0
BBX 9 14 0 0
BITMAP
0F00
0F00
1C00
1C00
0000
DF00
FF80
E380
E380
E380
E000
E000
E000
E000
ENDCHAR
STARTCHAR uni0156
ENCODING 342
SWIDTH 699 0
DWIDTH 11 0
BBX 9 16 0 -2
BITMAP
FF00
FF00
E380
E380
E380
E380
FF80
FF00
E380
E380
E380
E380
FF80
1C00
7800
7800
ENDCHAR
STARTCHAR uni0157
ENCODING 343
SWIDTH 699 0
DWIDTH 11 0
BBX 9 13 0 -2
BITMAP
6F00
6F00
7B80
7B80
7B80
7800
7800
7800
7800
7800
7800
E000
E000
ENDCHAR
STARTCHAR Rcaron
ENCODING 344
SWIDTH 699 0
DWIDTH 11 0
BBX 9 14 0 0
BITMAP
7B00
7B00
1C00
1C00
0000
FF00
FF80
E380
E380
FF80
FF00
E380
E380
E380
ENDCHAR
STARTCHAR rcaron
ENCODING 345
SWIDTH 699 0
DWIDTH 11 0
BBX 9 14 0 0
BITMAP
7B00
7B00
1C00
1C00
0000
DF00
FF80
E380
E380
E380
E000
E000
E000
E000
ENDCHAR
STARTCHAR Sacute
ENCODING 346
SWIDTH 699 0
DWIDTH 11 0
BBX 9 14 0 0
BITMAP
0F00
0F00
1C00
1C00
0000
7F00
FF80
E380
F800
FF80
0F80
E380
FF80
7F00
ENDCHAR
STARTCHAR sacute
ENCODING 347
SWIDTH 699 0
DWIDTH 11 0
BBX 9 14 0 0
BITMAP
0F00
0F00
1C00
1C00
0000
7F00
FF80
E380
F800
FF80
0F80
E380
FF80
7F00
ENDCHAR
STARTCHAR Scircumflex
ENCODING 348
SWIDTH 699 0
DWIDTH 11 0
BBX 9 14 0 0
BITMAP
1C00
1C00
7B00
7B00
0000
7F00
FF80
E380
F800
FF80
0F80
E380
FF80
7F00
ENDCHAR
STARTCHAR scircumflex
ENCODING 349
SWIDTH 699 0
DWIDTH 11 0
BBX 9 14 0 0
BITMAP
1C00
1C00
7B00
7B00
0000
7F00
FF80
E380
F800
FF80
0F80
E380
FF80
7F00
ENDCHAR
STARTCHAR Scedilla
ENCODING 350
SWIDTH 699 0
DWIDTH 11 0
BBX 9 16 0 -2
BITMAP
7F00
7F00
E380
E380
E000
7F00
7F80
0380
0380
E380
E380
7F00
7F00
1C00
7800
7800
ENDCHAR
STARTCHAR scedilla
ENCODING 351
SWIDTH 699 0
DWIDTH 11 0
BBX 9 13 0 -2
BITMAP
7F00
7F00
E380
FB80
F800
0F80
EF80
E380
7F00
7F00
1C00
7800
7800
ENDCHAR
STARTCHAR Scaron
ENCODING 352
SWIDTH 699 0
DWIDTH 11 0
BBX 9 14 0 0
BITMAP
7B00
7B00
1C00
1C00
0000
7F00
FF80
E380
F800
FF80
0F80
E380
FF80
7F00
ENDCHAR
STARTCHAR scaron
ENCODING 353
SWIDTH 699 0
DWIDTH 11 0
BBX 9 14 0 0
BITMAP
7B00
7B00
1C00
1C00
0000
7F00
FF80
E380
F800
FF80
0F80
E380
FF80
7F00
ENDCHAR
STARTCHAR uni0162
ENCODING 354
SWIDTH 699 0
DWIDTH 11 0
BBX 9 16 0 -2
BITMAP
FF80
FF80
1C00
1C00
1C00
1C00
1C00
1C00
1C00
1C00
1C00
1C00
1C00
1C00
7800
7800
ENDCHAR
STARTCHAR uni0163
ENCODING 355
SWIDTH 699 0
DWIDTH 11 0
BBX 9 13 0 -2
BITMAP
7800
7800
FF80
FF80
7800
7800
7800
7800
7800
7F00
1F00
7800
7800
ENDCHAR
STARTCHAR Tcaron
ENCODING 356
SWIDTH 699 0
DWIDTH 11 0
BBX 9 14 0 0
BITMAP
7B00
7B00
1C00
1C00
0000
FF80
FF80
1C00
1C00
1C00
1C00
1C00
1C00
1C00
ENDCHAR
STARTCHAR tcaron
ENCODING 357
SWIDTH 799 0
DWIDTH 12 0
BBX 11 12 0 0
BITMAP
7860
7860
7860
FF00
FF00
7800
7800
7800
7800
7800
7F00
1F00
ENDCHAR
STARTCHAR Tbar
ENCODING 358
SWIDTH 699 0
DWIDTH 11 0
BBX 9 14 0 0
BITMAP
FF80
FF80
1C00
1C00
1C00
7F00
7F00
1C00
1C00
1C00
1C00
1C00
1C00
1C00
ENDCHAR
STARTCHAR tbar
ENCODING 359
SWIDTH 699 0
DWIDTH 11 0
BBX 9 12 0 0
BITMAP
7800
7800
7800
FF80
FF80
7800
FF00
FF00
7800
7800
7F00
1F00
ENDCHAR
STARTCHAR Utilde
ENCODING 360
SWIDTH 699 0
DWIDTH 11 0
BBX 9 14 0 0
BITMAP
7D80
7D80
EF00
EF00
0000
E380
E380
E380
E380
E380
E380
E380
FF80
7F00
ENDCHAR
STARTCHAR utilde
ENCODING 361
SWIDTH 699 0
DWIDTH 11 0
BBX 9 14 0 0
BITMAP
7D80
7D80
EF00
EF00
0000
E380
E380
E380
E380
E380
E380
E380
FF80
7D80
ENDCHAR
STARTCHAR Umacron
ENCODING 362
SWIDTH 699 0
DWIDTH 11 0
BBX 9 14 0 0
BITMAP
FF80
FF80
0000
E380
E380
E380
E380
E380
E380
E380
E380
E380
FF80
7F00
ENDCHAR
STARTCHAR umacron
ENCODING 363
SWIDTH 699 0
DWIDTH 11 0
BBX 9 14 0 0
BITMAP
FF80
FF80
0000
E380
E380
E380
E380
E380
E380
E380
E380
E380
FF80
7D80
ENDCHAR
STARTCHAR Ubreve
ENCODING 364
SWIDTH 699 0
DWIDTH 11 0
BBX 9 14 0 0
BITMAP
6300
6300
1C00
1C00
0000
E380
E380
E380
E380
E380
E380
E380
FF80
7F00
ENDCHAR
STARTCHAR ubreve
ENCODING 365
SWIDTH 699 0
DWIDTH 11 0
BBX 9 14 0 0
BITMAP
6300
6300
1C00
1C00
0000
E380
E380
E380
E380
E380
E380
E380
FF80
7D80
ENDCHAR
STARTCHAR Uring
ENCODING 366
SWIDTH 699 0
DWIDTH 11 0
BBX 9 14 0 0
BITMAP
1C00
1C00
6300
7F00
1C00
E380
E380
E380
E380
E380
E380
E380
FF80
7F00
ENDCHAR
STARTCHAR uring
ENCODING 367
SWIDTH 699 0
DWIDTH 11 0
BBX 9 14 0 0
BITMAP
1C00
1C00
6300
7F00
1C00
E380
E380
E380
E380
E380
E380
E380
FF80
7D80
ENDCHAR
STARTCHAR Uhungarumlaut
ENCODING 368
SWIDTH 699 0
DWIDTH 11 0
BBX 9 14 0 0
BITMAP
7B80
7B80
EF00
EF00
0000
E380
E380
E380
E380
E380
E380
E380
FF80
7F00
ENDCHAR
STARTCHAR uhungarumlaut
ENCODING 369
SWIDTH 699 0
DWIDTH 11 0
BBX 9 14 0 0
BITMAP
7B80
7B80
EF00
EF00
0000
E380
E380
E380
E380
E380
E380
E380
FF80
7D80
ENDCHAR
STARTCHAR Uogonek
ENCODING 370
SWIDTH 699 0
DWIDTH 11 0
BBX 9 16 0 -2
BITMAP
E380
E380
E380
E380
E380
E380
E380
E380
E380
E380
E380
7F00
7F00
1C00
0F00
0F00
ENDCHAR
STARTCHAR uogonek
ENCODING 371
SWIDTH 699 0
DWIDTH 11 0
BBX 9 13 0 -2
BITMAP
E380
E380
E380
E380
E380
E380
E380
E380
7D80
7F80
0F00
0380
0380
ENDCHAR
STARTCHAR Wcircumflex
ENCODING 372
SWIDTH 799 0
DWIDTH 12 0
BBX 11 14 0 0
BITMAP
0C00
0C00
1B00
1B00
0000
E1E0
E1E0
E1E0
EDE0
FFE0
FFE0
FBE0
FBE0
E1E0
ENDCHAR
STARTCHAR wcircumflex
ENCODING 373
SWIDTH 799 0
DWIDTH 12 0
BBX 11 14 0 0
BITMAP
0C00
0C00
1B00
1B00
0000
E1E0
E1E0
E1E0
E1E0
EDE0
EDE0
FFE0
FFE0
7B80
ENDCHAR
STARTCHAR Ycircumflex
ENCODING 374
SWIDTH 699 0
DWIDTH 11 0
BBX 9 14 0 0
BITMAP
1C00
1C00
7B00
7B00
0000
E380
E380
E380
E380
FF80
7F00
1C00
1C00
1C00
ENDCHAR
STARTCHAR ycircumflex
ENCODING 375
SWIDTH 699 0
DWIDTH 11 0
BBX 9 16 0 -2
BITMAP
1C00
1C00
7B00
7B00
0000
E380
E380
E380
E380
E380
E380
7F80
7F80
0380
7F00
7F00
ENDCHAR
STARTCHAR Ydieresis
ENCODING 376
SWIDTH 699 0
DWIDTH 11 0
BBX 9 14 0 0
BITMAP
E380
E380
0000
E380
E380
E380
E380
E380
7F00
7F00
1C00
1C00
1C00
1C00
ENDCHAR
STARTCHAR Zacute
ENCODING 377
SWIDTH 699 0
DWIDTH 11 0
BBX 9 14 0 0
BITMAP
0F00
0F00
1C00
1C00
0000
FF80
FF80
0F00
1C00
7C00
7800
E000
FF80
FF80
ENDCHAR
STARTCHAR zacute
ENCODING 378
SWIDTH 699 0
DWIDTH 11 0
BBX 9 14 0 0
BITMAP
0F00
0F00
1C00
1C00
0000
FF80
FF80
0F00
1C00
7C00
7800
E000
FF80
FF80
ENDCHAR
STARTCHAR Zdotaccent
ENCODING 379
SWIDTH 699 0
DWIDTH 11 0
BBX 9 14 0 0
BITMAP
1C00
1C00
0000
FF80
FF80
0380
0F80
0F00
1C00
7C00
7800
E000
FF80
FF80
ENDCHAR
STARTCHAR zdotaccent
ENCODING 380
SWIDTH 699 0
DWIDTH 11 0
BBX 9 14 0 0
BITMAP
1C00
1C00
0000
FF80
FF80
0380
0F80
0F00
1C00
7C00
7800
E000
FF80
FF80
ENDCHAR
STARTCHAR Zcaron
ENCODING 381
SWIDTH 699 0
DWIDTH 11 0
BBX 9 14 0 0
BITMAP
7B00
7B00
1C00
1C00
0000
FF80
FF80
0F00
1C00
7C00
7800
E000
FF80
FF80
ENDCHAR
STARTCHAR zcaron
ENCODING 382
SWIDTH 699 0
DWIDTH 11 0
BBX 9 14 0 0
BITMAP
7B00
7B00
1C00
1C00
0000
FF80
FF80
0F00
1C00
7C00
7800
E000
FF80
FF80
ENDCHAR
STARTCHAR longs
ENCODING 383
SWIDTH 699 0
DWIDTH 11 0
BBX 9 14 0 0
BITMAP
1F00
1F00
7B80
7B80
7800
7800
F800
F800
7800
7800
7800
7800
7800
7800
ENDCHAR
STARTCHAR circumflex
ENCODING 710
SWIDTH 500 0
DWIDTH 8 0
BBX 6 4 0 10
BITMAP
78
78
EC
EC
ENDCHAR
STARTCHAR ring
ENCODING 730
SWIDTH 500 0
DWIDTH 8 0
BBX 6 5 0 9
BITMAP
78
78
EC
FC
78
ENDCHAR
STARTCHAR tilde
ENCODING 732
SWIDTH 699 0
DWIDTH 11 0
BBX 9 4 0 10
BITMAP
7D80
7D80
EF00
EF00
ENDCHAR
STARTCHAR uni1E9E
ENCODING 7838
SWIDTH 699 0
DWIDTH 11 0
BBX 9 14 0 0
BITMAP
7C00
7C00
EF00
EF80
E380
EF00
EF80
E380
E380
E380
E380
E380
EF80
EF00
ENDCHAR
STARTCHAR endash
ENCODING 8211
SWIDTH 699 0
DWIDTH 11 0
BBX 9 2 0 6
BITMAP
FF80
FF80
ENDCHAR
STARTCHAR emdash
ENCODING 8212
SWIDTH 799 0
DWIDTH 12 0
BBX 11 2 0 6
BITMAP
FFE0
FFE0
ENDCHAR
STARTCHAR quoteleft
ENCODING 8216
SWIDTH 299 0
DWIDTH 5 0
BBX 3 7 0 7
BITMAP
60
60
C0
E0
E0
E0
E0
ENDCHAR
STARTCHAR quoteright
ENCODING 8217
SWIDTH 299 0
DWIDTH 5 0
BBX 3 7 0 7
BITMAP
E0
E0
E0
E0
60
C0
C0
ENDCHAR
STARTCHAR quotesinglbase
ENCODING 8218
SWIDTH 299 0
DWIDTH 5 0
BBX 3 7 0 -2
BITMAP
E0
E0
E0
E0
60
C0
C0
ENDCHAR
STARTCHAR quotereversed
ENCODING 8219
SWIDTH 299 0
DWIDTH 5 0
BBX 3 7 0 7
BITMAP
E0
E0
E0
E0
C0
60
60
ENDCHAR
STARTCHAR quotedblleft
ENCODING 8220
SWIDTH 599 0
DWIDTH 9 0
BBX 8 7 0 7
BITMAP
63
63
CC
EF
EF
EF
EF
ENDCHAR
STARTCHAR quotedblright
ENCODING 8221
SWIDTH 599 0
DWIDTH 9 0
BBX 8 7 0 7
BITMAP
EF
EF
EF
EF
63
CC
CC
ENDCHAR
STARTCHAR quotedblbase
ENCODING 8222
SWIDTH 599 0
DWIDTH 9 0
BBX 8 7 0 -2
BITMAP
EF
EF
EF
EF
63
CC
CC
ENDCHAR
STARTCHAR dagger
ENCODING 8224
SWIDTH 699 0
DWIDTH 11 0
BBX 9 14 0 0
BITMAP
1C00
1C00
1C00
FF80
FF80
1C00
1C00
1C00
1C00
1C00
1C00
1C00
1C00
1C00
ENDCHAR
STARTCHAR bullet
ENCODING 8226
SWIDTH 500 0
DWIDTH 8 0
BBX 6 6 0 3
BITMAP
78
FC
FC
FC
FC
78
ENDCHAR
STARTCHAR ellipsis
ENCODING 8230
SWIDTH 799 0
DWIDTH 12 0
BBX 11 3 0 0
BITMAP
EF60
EF60
EF60
ENDCHAR
STARTCHAR guilsinglleft
ENCODING 8249
SWIDTH 500 0
DWIDTH 8 0
BBX 6 8 0 3
BITMAP
1C
1C
78
F8
E0
78
7C
1C
ENDCHAR
STARTCHAR guilsinglright
ENCODING 8250
SWIDTH 500 0
DWIDTH 8 0
BBX 6 8 0 3
BITMAP
E0
E0
78
7C
1C
78
F8
E0
ENDCHAR
STARTCHAR fraction
ENCODING 8260
SWIDTH 799 0
DWIDTH 12 0
BBX 11 12 0 0
BITMAP
01E0
01E0
01E0
0380
0F80
0F00
1C00
7C00
7800
E000
E000
E000
ENDCHAR
STARTCHAR uni2074
ENCODING 8308
SWIDTH 699 0
DWIDTH 11 0
BBX 9 11 0 3
BITMAP
E380
E380
E380
E380
E380
E380
FF80
FF80
0380
0380
0380
ENDCHAR
STARTCHAR Euro
ENCODING 8364
SWIDTH 699 0
DWIDTH 11 0
BBX 9 14 0 0
BITMAP
1F00
1F00
7B80
7B80
7800
FF00
FF00
7800
FF00
FF00
7800
7B80
7F80
1F00
ENDCHAR
STARTCHAR trademark
ENCODING 8482
SWIDTH 799 0
DWIDTH 12 0
BBX 11 8 0 6
BITMAP
FC60
FC60
6FE0
6FE0
6C60
6C60
6C60
6C60
ENDCHAR
STARTCHAR minus
ENCODING 8722
SWIDTH 699 0
DWIDTH 11 0
BBX 9 2 0 6
BITMAP
FF80
FF80
ENDCHAR
STARTCHAR uni2215
ENCODING 8725
SWIDTH 699 0
DWIDTH 11 0
BBX 9 14 0 0
BITMAP
0380
0380
0F00
0F00
0F00
1C00
1C00
1C00
7800
7800
7800
E000
E000
E000
ENDCHAR
STARTCHAR .notdef
ENCODING -1
SWIDTH 799 0
DWIDTH 12 0
BBX 11 14 0 0
BITMAP
7F80
7F80
E1E0
E1E0
E1E0
E1E0
E1E0
E1E0
EF80
EF80
E000
E1E0
FFE0
7F80
ENDCHAR
STARTCHAR glyph1
ENCODING -1
SWIDTH 99 0
DWIDTH 2 0
BBX 1 1 0 0
BITMAP
00
ENDCHAR
STARTCHAR glyph2
ENCODING -1
SWIDTH 99 0
DWIDTH 2 0
BBX 1 1 0 0
BITMAP
00
ENDCHAR
ENDFONT
